<?xml version="1.0" encoding="UTF-8"?>
<svg version="1.1" xmlns="http://www.w3.org/2000/svg" width="508" height="255">
<path d="M0 0 C167.64 0 335.28 0 508 0 C508 84.15 508 168.3 508 255 C340.36 255 172.72 255 0 255 C0 170.85 0 86.7 0 0 Z " fill="#FDFDFD" transform="translate(0,0)"/>
<path d="M0 0 C5.250116 3.91748262 7.98849528 8.05365564 9.78515625 14.33203125 C11.05922843 26.26738549 8.69737402 37.43084191 5.8972168 48.97680664 C5.22557413 51.75745103 4.58852371 54.54442048 3.95507812 57.33398438 C-2.30014925 84.18820486 -16.14357514 112.20077808 -39.8359375 128.08984375 C-41.9339607 129.26473674 -44.0254559 130.34079191 -46.21484375 131.33203125 C-46.87484375 131.66203125 -47.53484375 131.99203125 -48.21484375 132.33203125 C-60.82981303 135.23061642 -69.90298699 128.73192457 -80.3828125 122.56640625 C-87.06554831 118.70810152 -94.29679755 114.76381221 -102.21484375 115.33203125 C-102.54484375 115.66203125 -102.87484375 115.99203125 -103.21484375 116.33203125 C-102.86349848 120.98735609 -102.24205767 123.77834534 -99.21484375 127.33203125 C-99.21484375 127.99203125 -99.21484375 128.65203125 -99.21484375 129.33203125 C-98.48450928 129.61369141 -97.7541748 129.89535156 -97.00170898 130.18554688 C-94.45521784 131.23314411 -92.06352403 132.40123234 -89.625 133.67578125 C-84.10455152 136.46101955 -78.4477301 138.68910463 -72.65234375 140.83203125 C-71.60312744 141.22293945 -70.55391113 141.61384766 -69.47290039 142.01660156 C-62.08581357 144.73236761 -54.66182519 147.10203357 -47.0859375 149.22265625 C-43.25121 150.29994535 -39.4863421 151.54980096 -35.71484375 152.83203125 C-25.26771128 156.36236521 -14.70354279 159.44695779 -4.02734375 162.20703125 C8.34897679 165.47227326 20.66774579 169.23833886 32.56713867 173.96459961 C41.41723206 177.5771507 41.41723206 177.5771507 50.78515625 177.33203125 C54.2791564 174.52196305 56.37165804 171.57252587 57.78515625 167.33203125 C58.70745244 153.96105388 56.89891876 140.56612053 55.44140625 127.29785156 C55.03764406 123.6047863 54.65271331 119.91009434 54.26953125 116.21484375 C51.46807604 83.92579529 51.46807604 83.92579529 36.32421875 56.34765625 C29.54834637 48.30000475 22.80733282 38.37885898 23.3125 27.375 C24.65720292 21.56277169 28.69262455 16.76326811 33.41015625 13.26953125 C38.65558785 10.41112206 43.99331223 10.18133376 49.78515625 11.33203125 C64.20936111 17.8101071 72.13974011 38.24689612 78.6328125 51.546875 C79.5373594 53.37485126 80.44318359 55.20219596 81.35020447 57.02894592 C83.71611604 61.80029986 86.06851155 66.5781721 88.41680908 71.35821533 C92.17381084 79.00251115 95.94730973 86.63861687 99.729002 94.27072334 C101.03146019 96.90577155 102.32541111 99.544862 103.61842346 102.18455505 C114.27010239 126.21944508 114.27010239 126.21944508 133.36669922 142.51391602 C137.15581366 143.79569701 140.61897336 144.01043365 144.59765625 143.95703125 C145.89123047 143.94990112 145.89123047 143.94990112 147.2109375 143.94262695 C165.66146208 143.4083514 184.54471978 139.34819828 202.45703125 135.08422852 C208.39365593 133.74247818 214.38131152 132.67488753 220.37060547 131.59716797 C222.54741785 131.20482123 224.72294268 130.80583068 226.8984375 130.40625 C238.36416824 128.31586075 249.42855939 127.08284723 261.09765625 126.89453125 C262.24427734 126.84876953 263.39089844 126.80300781 264.57226562 126.75585938 C275.68718345 126.61118303 284.94307409 130.63850758 293.0390625 138.296875 C301.69782276 148.38907656 304.4362626 160.68410707 304.1328125 173.6796875 C303.12534219 184.26378568 298.15478732 192.39268523 290.53515625 199.58203125 C283.59844103 205.09016459 275.50275224 206.90696557 266.85546875 207.640625 C265.92265579 207.7324556 264.98984283 207.82428619 264.02876282 207.91889954 C260.99033191 208.21560338 257.95042018 208.49230698 254.91015625 208.76953125 C251.7049556 209.07891224 248.50033223 209.39386621 245.29570007 209.70907593 C243.09950257 209.92478986 240.90313966 210.13882597 238.70661926 210.35122681 C227.19740727 211.46839996 215.71013701 212.76245258 204.22265625 214.08203125 C202.35238808 214.29494402 200.48210845 214.50775611 198.61181641 214.72045898 C196.87660197 214.91888399 195.14141179 215.11752137 193.40625 215.31640625 C192.63227371 215.40473221 191.85829742 215.49305817 191.06086731 215.58406067 C187.7124104 215.97123346 184.37951343 216.39102374 181.04321289 216.8762207 C160.69080716 219.72357488 145.53744065 215.32588467 128.78515625 203.33203125 C126.10111144 201.07023699 123.526168 198.75270187 121.00390625 196.3125 C116.43876698 192.23763097 113.04142507 190.72941245 106.98828125 191 C103.28736216 191.55776263 101.521332 192.77826722 98.78515625 195.33203125 C95.14777463 200.39190595 92.52584287 205.88520088 89.91015625 211.51953125 C86.93000482 217.63751408 82.93744643 222.25588616 76.78515625 225.33203125 C75.33358674 225.44167568 73.87722445 225.49105428 72.42163086 225.5090332 C71.06266945 225.52828606 71.06266945 225.52828606 69.67625427 225.54792786 C68.68996536 225.55531479 67.70367645 225.56270172 66.6875 225.5703125 C65.66523819 225.57838425 64.64297638 225.58645599 63.58973694 225.59477234 C61.41327618 225.60863409 59.23679348 225.61934684 57.06030273 225.62719727 C54.86199453 225.63861412 52.66371172 225.65889816 50.46557617 225.6887207 C36.96482476 225.87186845 24.72981334 225.31152176 11.78515625 221.33203125 C10.81924561 221.04610107 9.85333496 220.7601709 8.8581543 220.46557617 C6.25616124 219.64380455 3.71170528 218.73620272 1.16015625 217.76953125 C0.19416504 217.40512939 -0.77182617 217.04072754 -1.76708984 216.6652832 C-43.02891757 200.46990556 -84.67938319 178.05600024 -119.52636719 150.65722656 C-121.24275811 149.31012276 -122.96632458 147.97266977 -124.69140625 146.63671875 C-163.33986147 116.62449016 -163.33986147 116.62449016 -166.21484375 101.33203125 C-166.958659 93.59349179 -165.35756468 87.84353414 -160.52734375 81.64453125 C-156.42575892 77.09289721 -151.19121989 74.5142127 -145.21484375 73.33203125 C-142.74783362 73.23727689 -140.31031836 73.1919008 -137.84375 73.19921875 C-137.12557602 73.19826202 -136.40740204 73.1973053 -135.66746521 73.19631958 C-134.14525261 73.19563987 -132.62303709 73.19747959 -131.10083008 73.20166016 C-128.8164991 73.20694074 -126.53237118 73.20174513 -124.24804688 73.1953125 C-117.74918636 73.19252171 -111.31053696 73.25565862 -104.83203125 73.828125 C-97.00570039 74.51032333 -89.19122032 74.51808503 -81.34057617 74.51733398 C-78.78482496 74.51952484 -76.22950378 74.53776779 -73.67382812 74.55664062 C-54.55235741 75.06535401 -54.55235741 75.06535401 -37.36035156 67.96191406 C-35.75136152 65.67256676 -35.85795758 64.03382168 -35.88671875 61.25390625 C-35.89445312 59.75923828 -35.89445312 59.75923828 -35.90234375 58.234375 C-35.93328125 56.67396484 -35.93328125 56.67396484 -35.96484375 55.08203125 C-35.97257812 53.54482422 -35.97257812 53.54482422 -35.98046875 51.9765625 C-36.03519988 46.66080125 -36.3987825 41.59180103 -37.21484375 36.33203125 C-37.85055704 25.02366982 -37.66802817 14.44147888 -30.21484375 5.33203125 C-22.07810187 -2.92378491 -10.57074302 -6.1427521 0 0 Z " fill="#FBFBFB" transform="translate(193.21484375,14.66796875)"/>
<path d="M0 0 C5.250116 3.91748262 7.98849528 8.05365564 9.78515625 14.33203125 C11.05922843 26.26738549 8.69737402 37.43084191 5.8972168 48.97680664 C5.22557413 51.75745103 4.58852371 54.54442048 3.95507812 57.33398438 C-2.30014925 84.18820486 -16.14357514 112.20077808 -39.8359375 128.08984375 C-41.9339607 129.26473674 -44.0254559 130.34079191 -46.21484375 131.33203125 C-46.87484375 131.66203125 -47.53484375 131.99203125 -48.21484375 132.33203125 C-60.82981303 135.23061642 -69.90298699 128.73192457 -80.3828125 122.56640625 C-87.06554831 118.70810152 -94.29679755 114.76381221 -102.21484375 115.33203125 C-102.54484375 115.66203125 -102.87484375 115.99203125 -103.21484375 116.33203125 C-102.86349848 120.98735609 -102.24205767 123.77834534 -99.21484375 127.33203125 C-99.21484375 127.99203125 -99.21484375 128.65203125 -99.21484375 129.33203125 C-98.48450928 129.61369141 -97.7541748 129.89535156 -97.00170898 130.18554688 C-94.45521784 131.23314411 -92.06352403 132.40123234 -89.625 133.67578125 C-84.10455152 136.46101955 -78.4477301 138.68910463 -72.65234375 140.83203125 C-71.60312744 141.22293945 -70.55391113 141.61384766 -69.47290039 142.01660156 C-62.08581357 144.73236761 -54.66182519 147.10203357 -47.0859375 149.22265625 C-43.25121 150.29994535 -39.4863421 151.54980096 -35.71484375 152.83203125 C-25.26771128 156.36236521 -14.70354279 159.44695779 -4.02734375 162.20703125 C8.34897679 165.47227326 20.66774579 169.23833886 32.56713867 173.96459961 C41.41723206 177.5771507 41.41723206 177.5771507 50.78515625 177.33203125 C54.2791564 174.52196305 56.37165804 171.57252587 57.78515625 167.33203125 C58.70745244 153.96105388 56.89891876 140.56612053 55.44140625 127.29785156 C55.03764406 123.6047863 54.65271331 119.91009434 54.26953125 116.21484375 C51.46807604 83.92579529 51.46807604 83.92579529 36.32421875 56.34765625 C29.54834637 48.30000475 22.80733282 38.37885898 23.3125 27.375 C24.65720292 21.56277169 28.69262455 16.76326811 33.41015625 13.26953125 C38.65558785 10.41112206 43.99331223 10.18133376 49.78515625 11.33203125 C64.20936111 17.8101071 72.13974011 38.24689612 78.6328125 51.546875 C79.5373594 53.37485126 80.44318359 55.20219596 81.35020447 57.02894592 C83.71611604 61.80029986 86.06851155 66.5781721 88.41680908 71.35821533 C92.17381084 79.00251115 95.94730973 86.63861687 99.729002 94.27072334 C101.03146019 96.90577155 102.32541111 99.544862 103.61842346 102.18455505 C114.27010239 126.21944508 114.27010239 126.21944508 133.36669922 142.51391602 C137.15581366 143.79569701 140.61897336 144.01043365 144.59765625 143.95703125 C145.89123047 143.94990112 145.89123047 143.94990112 147.2109375 143.94262695 C165.66146208 143.4083514 184.54471978 139.34819828 202.45703125 135.08422852 C208.39365593 133.74247818 214.38131152 132.67488753 220.37060547 131.59716797 C222.54741785 131.20482123 224.72294268 130.80583068 226.8984375 130.40625 C238.36416824 128.31586075 249.42855939 127.08284723 261.09765625 126.89453125 C262.24427734 126.84876953 263.39089844 126.80300781 264.57226562 126.75585938 C275.68718345 126.61118303 284.94307409 130.63850758 293.0390625 138.296875 C301.69782276 148.38907656 304.4362626 160.68410707 304.1328125 173.6796875 C303.12534219 184.26378568 298.15478732 192.39268523 290.53515625 199.58203125 C283.59844103 205.09016459 275.50275224 206.90696557 266.85546875 207.640625 C265.92265579 207.7324556 264.98984283 207.82428619 264.02876282 207.91889954 C260.99033191 208.21560338 257.95042018 208.49230698 254.91015625 208.76953125 C251.7049556 209.07891224 248.50033223 209.39386621 245.29570007 209.70907593 C243.09950257 209.92478986 240.90313966 210.13882597 238.70661926 210.35122681 C227.19740727 211.46839996 215.71013701 212.76245258 204.22265625 214.08203125 C202.35238808 214.29494402 200.48210845 214.50775611 198.61181641 214.72045898 C196.87660197 214.91888399 195.14141179 215.11752137 193.40625 215.31640625 C192.63227371 215.40473221 191.85829742 215.49305817 191.06086731 215.58406067 C187.7124104 215.97123346 184.37951343 216.39102374 181.04321289 216.8762207 C160.69080716 219.72357488 145.53744065 215.32588467 128.78515625 203.33203125 C126.10111144 201.07023699 123.526168 198.75270187 121.00390625 196.3125 C116.43876698 192.23763097 113.04142507 190.72941245 106.98828125 191 C103.28736216 191.55776263 101.521332 192.77826722 98.78515625 195.33203125 C95.14777463 200.39190595 92.52584287 205.88520088 89.91015625 211.51953125 C86.93000482 217.63751408 82.93744643 222.25588616 76.78515625 225.33203125 C75.33358674 225.44167568 73.87722445 225.49105428 72.42163086 225.5090332 C71.06266945 225.52828606 71.06266945 225.52828606 69.67625427 225.54792786 C68.68996536 225.55531479 67.70367645 225.56270172 66.6875 225.5703125 C65.66523819 225.57838425 64.64297638 225.58645599 63.58973694 225.59477234 C61.41327618 225.60863409 59.23679348 225.61934684 57.06030273 225.62719727 C54.86199453 225.63861412 52.66371172 225.65889816 50.46557617 225.6887207 C36.96482476 225.87186845 24.72981334 225.31152176 11.78515625 221.33203125 C10.81924561 221.04610107 9.85333496 220.7601709 8.8581543 220.46557617 C6.25616124 219.64380455 3.71170528 218.73620272 1.16015625 217.76953125 C0.19416504 217.40512939 -0.77182617 217.04072754 -1.76708984 216.6652832 C-43.02891757 200.46990556 -84.67938319 178.05600024 -119.52636719 150.65722656 C-121.24275811 149.31012276 -122.96632458 147.97266977 -124.69140625 146.63671875 C-163.33986147 116.62449016 -163.33986147 116.62449016 -166.21484375 101.33203125 C-166.958659 93.59349179 -165.35756468 87.84353414 -160.52734375 81.64453125 C-156.42575892 77.09289721 -151.19121989 74.5142127 -145.21484375 73.33203125 C-142.74783362 73.23727689 -140.31031836 73.1919008 -137.84375 73.19921875 C-137.12557602 73.19826202 -136.40740204 73.1973053 -135.66746521 73.19631958 C-134.14525261 73.19563987 -132.62303709 73.19747959 -131.10083008 73.20166016 C-128.8164991 73.20694074 -126.53237118 73.20174513 -124.24804688 73.1953125 C-117.74918636 73.19252171 -111.31053696 73.25565862 -104.83203125 73.828125 C-97.00570039 74.51032333 -89.19122032 74.51808503 -81.34057617 74.51733398 C-78.78482496 74.51952484 -76.22950378 74.53776779 -73.67382812 74.55664062 C-54.55235741 75.06535401 -54.55235741 75.06535401 -37.36035156 67.96191406 C-35.75136152 65.67256676 -35.85795758 64.03382168 -35.88671875 61.25390625 C-35.89445312 59.75923828 -35.89445312 59.75923828 -35.90234375 58.234375 C-35.93328125 56.67396484 -35.93328125 56.67396484 -35.96484375 55.08203125 C-35.97257812 53.54482422 -35.97257812 53.54482422 -35.98046875 51.9765625 C-36.03519988 46.66080125 -36.3987825 41.59180103 -37.21484375 36.33203125 C-37.85055704 25.02366982 -37.66802817 14.44147888 -30.21484375 5.33203125 C-22.07810187 -2.92378491 -10.57074302 -6.1427521 0 0 Z M-22.21484375 13.33203125 C-24.79594574 18.41923954 -25.60339864 22.09680846 -25.52734375 27.89453125 C-25.51896484 28.58925537 -25.51058594 29.28397949 -25.50195312 29.99975586 C-25.39878578 34.53138144 -24.92284931 38.91219388 -24.21484375 43.39453125 C-22.54439379 54.0103618 -20.99104055 65.90792016 -27.21484375 75.33203125 C-35.64781508 84.67722303 -50.29053823 86.69215795 -62.21484375 87.33203125 C-75.78115873 87.78004165 -89.32277296 87.93475851 -102.78369141 86.06152344 C-110.63473678 85.09351184 -118.528427 84.965633 -126.43011475 84.86767578 C-128.06445757 84.84411187 -129.69868675 84.81011117 -131.33258057 84.76513672 C-141.66868868 84.12579788 -141.66868868 84.12579788 -150.734375 88.23828125 C-154.2565186 92.63125405 -154.59095653 94.6903396 -154.21484375 100.33203125 C-150.04239587 110.20993502 -141.32300597 117.59406369 -133.21484375 124.33203125 C-132.24804688 125.16347656 -131.28125 125.99492187 -130.28515625 126.8515625 C-103.43182617 149.93665158 -73.74447588 167.81475062 -42.40234375 184.08203125 C-41.79495361 184.3981839 -41.18756348 184.71433655 -40.56176758 185.04006958 C-32.21806863 189.37702774 -23.78365929 193.45762688 -15.21484375 197.33203125 C-14.49047119 197.66541504 -13.76609863 197.99879883 -13.01977539 198.34228516 C-5.09038183 201.98990964 2.93519594 205.22564996 11.16015625 208.14453125 C11.96783447 208.43448975 12.7755127 208.72444824 13.60766602 209.02319336 C22.47819795 212.09972559 31.10000694 213.64139139 40.484375 213.73828125 C41.36366165 213.7496814 42.2429483 213.76108154 43.14888 213.77282715 C44.98991193 213.79155779 46.83100834 213.80472682 48.67211914 213.8125 C51.47724817 213.83206327 54.27953108 213.89431263 57.08398438 213.95703125 C58.88409742 213.97008157 60.6842311 213.98058634 62.484375 213.98828125 C63.72836311 214.02532166 63.72836311 214.02532166 64.9974823 214.06311035 C70.49233078 214.02125848 73.35365574 212.75730181 77.36383057 208.9964447 C79.83968617 206.09714624 81.32911938 202.86378197 82.84765625 199.39453125 C87.50933197 189.52109983 91.79383017 184.16783307 101.78515625 179.33203125 C102.44515625 179.00203125 103.10515625 178.67203125 103.78515625 178.33203125 C112.50189347 177.13650653 117.89047696 179.1076123 124.78515625 184.33203125 C126.53904696 185.75791619 128.278867 187.20004675 130.01928711 188.64233398 C130.64327393 189.15868408 131.26726074 189.67503418 131.91015625 190.20703125 C132.53736572 190.726604 133.1645752 191.24617676 133.81079102 191.78149414 C148.34154676 203.48768903 162.79955439 206.86889433 181.12255859 204.92382812 C184.80178971 204.4790315 188.46976782 203.96111412 192.13647461 203.42349243 C196.24862084 202.82245256 200.36657067 202.26386142 204.484375 201.703125 C205.75473099 201.52924507 205.75473099 201.52924507 207.05075073 201.35185242 C216.27663588 200.10380389 225.52541432 199.10354565 234.78515625 198.14453125 C235.58281403 198.0609436 236.3804718 197.97735596 237.20230103 197.89123535 C244.72166583 197.10479349 252.23790829 196.35074388 259.77734375 195.78125 C260.79183594 195.70221436 261.80632812 195.62317871 262.8515625 195.54174805 C264.63169679 195.40882599 266.412991 195.29005404 268.1953125 195.19067383 C275.12283098 194.68227868 280.42877359 192.52775145 285.53515625 187.76953125 C291.25667977 180.03092826 292.9960926 170.74201577 291.78515625 161.33203125 C290.0088527 153.76053737 285.87648494 147.19912231 279.78515625 142.33203125 C273.05963382 139.00301011 267.01631051 138.89868087 259.59765625 139.01953125 C257.93851196 139.03318726 257.93851196 139.03318726 256.24584961 139.04711914 C243.68162462 138.9562613 243.68162462 138.9562613 231.78515625 142.33203125 C228.93288849 142.79801048 226.08247106 143.23047457 223.22265625 143.64453125 C216.93244327 144.59128607 210.76653649 145.71880109 204.59765625 147.26953125 C196.3811137 149.32890004 188.081084 150.70048793 179.71801758 152.02514648 C178.23918091 152.26019897 178.23918091 152.26019897 176.73046875 152.5 C175.84891113 152.63688232 174.96735352 152.77376465 174.05908203 152.91479492 C171.63230577 153.30530238 171.63230577 153.30530238 168.78515625 154.33203125 C161.27887501 155.34012274 153.72415468 155.54158206 146.16015625 155.58203125 C144.70222656 155.61296875 144.70222656 155.61296875 143.21484375 155.64453125 C132.88659565 155.70005947 124.77191518 152.919644 116.78515625 146.33203125 C110.09989956 139.20063785 105.25011345 131.41552852 100.78515625 122.76953125 C100.15137283 121.56256184 99.51691279 120.35594753 98.88183594 119.1496582 C88.80221838 99.9183656 79.11580565 80.46640428 69.84765625 60.83203125 C60.80901787 38.43038848 60.80901787 38.43038848 44.16015625 23.01953125 C40.66702464 23.08043263 40.66702464 23.08043263 37.78515625 25.26953125 C35.63416749 28.56323279 35.23692296 30.32099692 36.02734375 34.1796875 C38.16329433 40.24622755 42.59878335 45.10269351 46.52905273 50.08886719 C68.87624303 78.57212177 73.2644419 133.82911648 69.78515625 169.33203125 C68.96835767 173.11316624 67.88346413 176.08978606 65.78515625 179.33203125 C65.14900391 180.32203125 65.14900391 180.32203125 64.5 181.33203125 C60.43649715 186.76512698 55.28562576 189.34621412 48.734375 190.78125 C43.00864937 191.26648099 38.34812842 189.14441737 33.15136719 186.94628906 C20.69477438 181.69795895 7.59949374 178.14028867 -5.359375 174.359375 C-6.26167847 174.09606384 -7.16398193 173.83275269 -8.09362793 173.5614624 C-12.65519254 172.23193837 -17.21849819 170.90883638 -21.78466797 169.59521484 C-29.58785608 167.34150894 -37.312753 165.05886991 -44.91333008 162.17895508 C-49.23000782 160.59047994 -53.66501316 159.40884196 -58.09375 158.17773438 C-62.64452342 156.88173489 -66.86656545 155.22016606 -71.21484375 153.33203125 C-73.18513759 152.71939706 -75.16468935 152.13575363 -77.15234375 151.58203125 C-90.18899612 147.63791702 -105.19733278 142.8304261 -112.25 130.33984375 C-114.77187876 125.09188551 -115.83561724 120.12591713 -115.21484375 114.33203125 C-113.38703521 109.63900932 -110.70251283 105.71908927 -106.21484375 103.33203125 C-91.7391797 101.02638361 -75.35939043 110.20143448 -63.77734375 118.33203125 C-60.37373125 120.51900157 -57.53091546 121.14222142 -53.48828125 120.859375 C-39.16539968 117.53705711 -26.71093505 99.03340974 -19.21484375 87.33203125 C-9.03819265 70.03673751 2.34663969 35.05896615 -2.21484375 15.33203125 C-4.67861879 11.72911661 -4.67861879 11.72911661 -8.21484375 9.33203125 C-14.01444658 8.63699044 -18.16922725 8.69147114 -22.21484375 13.33203125 Z " fill="#080808" transform="translate(193.21484375,14.66796875)"/>
</svg>
